<?xml version="1.0" standalone="no"?>
<!DOCTYPE svg PUBLIC "-//W3C//DTD SVG 20010904//EN"
 "http://www.w3.org/TR/2001/REC-SVG-20010904/DTD/svg10.dtd">
<svg version="1.0" xmlns="http://www.w3.org/2000/svg"
 width="500.000000pt" height="500.000000pt" viewBox="0 0 500.000000 500.000000"
 preserveAspectRatio="xMidYMid meet">
<metadata>
Created by potrace 1.11, written by Peter Selinger 2001-2013
</metadata>
<g transform="translate(0.000000,500.000000) scale(0.100000,-0.100000)"
fill="#000000" stroke="none">
<path d="M2416 4843 c-91 -31 -176 -138 -176 -220 0 -15 -13 -24 -57 -37 -130
-41 -287 -140 -381 -241 -128 -136 -198 -260 -248 -440 -26 -90 -28 -115 -28
-250 1 -169 13 -231 75 -383 57 -141 153 -265 284 -371 83 -67 139 -104 189
-125 l36 -15 0 -102 0 -101 -27 6 c-75 19 -133 19 -153 1 -35 -31 -22 -103 24
-137 13 -9 66 -23 124 -32 169 -25 212 -62 220 -191 4 -62 1 -77 -22 -123 -14
-28 -26 -68 -26 -88 0 -31 8 -44 65 -98 l65 -62 0 -826 c0 -696 2 -827 14
-837 24 -20 74 -30 106 -21 47 13 60 33 60 89 l0 51 190 0 190 0 0 34 c0 33
-2 35 -37 38 -36 3 -38 5 -41 41 -3 37 -4 37 -48 37 -42 0 -44 1 -44 30 l0 30
-105 0 -105 0 0 50 0 50 95 0 95 0 0 45 0 45 -95 0 -95 0 0 579 0 579 50 42
c28 23 56 52 62 63 17 33 11 85 -17 132 -61 104 -10 262 94 293 22 7 77 17
122 23 96 12 134 33 148 86 8 28 7 42 -5 66 -16 29 -17 30 -80 24 l-64 -6 0
89 0 90 72 36 c205 103 379 291 464 502 52 130 80 304 70 438 -14 186 -100
411 -209 544 -113 139 -298 269 -449 316 -49 15 -58 21 -58 41 0 40 -45 127
-84 161 -72 63 -173 85 -260 55z m154 -93 c47 -24 76 -53 88 -90 l10 -27 -168
1 -168 0 10 26 c13 34 57 80 93 96 43 19 90 17 135 -6z m-5 -242 c-107 -78
-120 -116 -111 -316 4 -78 9 -148 12 -156 5 -14 -2 -18 -58 -30 -31 -7 -30 -9
-74 184 -38 166 -28 314 20 325 47 10 75 12 156 13 l85 1 -30 -21z m173 -3
c34 -8 82 -25 105 -37 l42 -21 -51 -12 c-111 -25 -153 -86 -213 -315 l-28
-105 -39 3 c-21 2 -42 7 -45 10 -8 10 19 235 37 307 8 32 31 88 50 122 39 71
41 72 142 48z m-493 -55 c-58 -86 -49 -154 49 -364 25 -55 45 -100 44 -100 -2
-1 -18 -12 -36 -25 -39 -26 -33 -30 -99 69 -101 153 -153 271 -153 346 0 29 5
36 43 55 47 25 181 78 185 74 1 -1 -13 -26 -33 -55z m751 -69 c32 -21 75 -55
94 -76 l35 -38 -53 7 c-80 10 -119 -5 -183 -71 -52 -54 -133 -157 -158 -199
-26 -46 -26 -46 -64 -28 -21 10 -37 23 -37 29 0 18 103 217 144 278 35 53 128
137 151 137 6 0 38 -17 71 -39z m-1001 -55 c-11 -37 -12 -59 -5 -93 16 -70 33
-95 144 -210 l104 -108 -21 -37 -22 -36 -28 16 c-49 29 -230 177 -265 216 -18
21 -43 58 -55 83 -20 40 -20 46 -7 70 15 27 159 158 165 151 3 -2 -2 -26 -10
-52z m1210 -153 c48 -58 67 -90 80 -133 7 -24 7 -24 -17 -8 -53 35 -100 41
-167 24 -59 -15 -81 -28 -252 -144 -26 -18 -51 -32 -55 -31 -5 0 -19 13 -31
28 l-22 28 82 81 c117 115 170 154 277 200 44 19 58 13 105 -45z m-1382 -149
c9 -18 33 -45 54 -62 37 -29 183 -107 254 -135 l37 -15 -11 -45 -10 -45 -46
14 c-25 8 -93 28 -151 45 -110 32 -195 77 -244 128 l-29 30 17 43 c9 24 35 77
58 118 l43 75 6 -60 c3 -33 13 -74 22 -91z m1516 -113 c12 -38 24 -97 27 -130
l7 -60 -50 48 c-75 72 -132 78 -323 30 -69 -17 -131 -32 -138 -33 -11 -1 -47
74 -39 80 1 0 55 25 121 53 133 59 210 79 308 80 l66 1 21 -69z m-724 -1 c66
-32 91 -55 127 -118 30 -52 33 -64 32 -138 0 -66 -4 -87 -24 -120 -57 -95
-128 -144 -223 -151 -113 -9 -200 34 -263 131 -57 86 -54 222 6 304 35 49 105
99 157 112 55 13 137 5 188 -20z m-874 -143 c53 -39 120 -57 265 -69 l134 -11
0 -43 c0 -39 -3 -44 -27 -51 -16 -4 -102 -8 -193 -8 -157 0 -168 1 -225 27
-54 23 -60 29 -63 59 -2 18 4 76 14 128 l17 96 22 -51 c13 -29 37 -62 56 -77z
m1554 -58 c70 -24 70 -24 73 -64 4 -45 -16 -195 -28 -214 -5 -10 -10 -5 -14
15 -11 48 -58 105 -108 131 -45 23 -218 52 -320 53 l-38 0 0 45 c0 42 2 44 33
50 128 21 315 14 402 -16z m-1552 -208 c48 -19 134 -12 256 19 65 16 125 32
133 35 10 4 20 -7 33 -35 10 -22 16 -42 14 -44 -2 -2 -26 -13 -54 -24 -27 -11
-88 -36 -134 -56 -94 -40 -167 -56 -251 -56 l-57 0 -21 79 c-12 43 -25 101
-28 127 l-7 49 44 -42 c24 -23 57 -47 72 -52z m1213 63 c229 -66 364 -132 364
-178 0 -24 -71 -170 -100 -206 l-20 -25 0 43 c0 100 -54 156 -238 247 -112 54
-133 68 -127 83 4 9 10 27 12 40 3 12 9 22 13 22 4 0 48 -12 96 -26z m-33
-170 c124 -93 179 -145 216 -204 49 -76 48 -78 -23 -150 -35 -36 -78 -73 -96
-84 -31 -18 -32 -18 -22 1 6 11 14 43 18 72 10 78 -31 151 -156 276 l-99 98
26 34 c14 18 27 33 30 33 2 0 50 -34 106 -76z m-686 19 l35 -27 -114 -108
c-112 -107 -198 -164 -279 -186 -33 -9 -37 -7 -65 27 -36 43 -89 129 -98 158
l-7 22 43 -21 c100 -48 151 -36 318 76 69 46 126 84 128 85 2 0 19 -11 39 -26z
m583 -164 c85 -130 116 -199 126 -283 6 -52 6 -53 -27 -73 -44 -26 -162 -73
-185 -73 -16 0 -15 2 3 23 64 69 69 172 15 288 -85 183 -93 203 -80 210 7 4
22 14 33 22 11 9 23 13 28 10 4 -2 43 -58 87 -124z m-485 86 l35 -14 -25 -58
c-72 -162 -161 -295 -231 -345 -41 -30 -42 -30 -70 -12 -43 27 -115 84 -146
115 l-27 27 57 -5 c107 -9 173 38 296 212 38 52 70 95 72 95 3 0 20 -7 39 -15z
m320 -135 c31 -121 44 -292 26 -356 -10 -37 -15 -42 -49 -48 -20 -3 -79 -6
-131 -6 l-93 0 48 33 c92 61 113 141 96 352 -6 66 -9 122 -7 124 8 8 70 18 76
12 4 -3 19 -53 34 -111z m-161 89 c8 -8 -22 -247 -39 -313 -9 -33 -32 -89 -51
-124 -34 -61 -37 -63 -67 -57 -64 13 -172 48 -191 61 -19 13 -18 14 8 24 15 5
33 10 40 10 7 0 31 13 54 30 52 38 92 120 129 268 l28 113 42 -4 c24 -2 45 -5
47 -8z m-65 -605 c61 -4 142 -2 191 5 47 6 94 12 105 14 18 2 20 -4 22 -80 l2
-83 -40 0 c-25 0 -44 6 -54 18 -7 9 -23 28 -34 42 l-19 25 -70 -18 c-65 -17
-74 -17 -132 -2 l-63 16 -26 -24 c-14 -13 -38 -32 -53 -42 l-28 -17 0 90 0 90
46 -14 c26 -8 94 -17 153 -20z"/>
</g>
</svg>
